<mxfile host="app.diagrams.net" agent="Mozilla/5.0 (Windows NT 10.0; Win64; x64) AppleWebKit/537.36 (KHTML, like Gecko) Chrome/127.0.0.0 Safari/537.36" version="24.7.7">
  <diagram name="第 1 页" id="i08ODNhsMV7nb67bj-HA">
    <mxGraphModel dx="1221" dy="725" grid="1" gridSize="10" guides="1" tooltips="1" connect="1" arrows="1" fold="1" page="1" pageScale="1" pageWidth="827" pageHeight="1169" math="0" shadow="0">
      <root>
        <mxCell id="0" />
        <mxCell id="1" parent="0" />
        <mxCell id="fwiV1ixGbwqKFBRt_GfB-11" style="rounded=0;orthogonalLoop=1;jettySize=auto;html=1;exitX=0.5;exitY=0;exitDx=0;exitDy=0;entryX=0.5;entryY=1;entryDx=0;entryDy=0;" edge="1" parent="1" source="fwiV1ixGbwqKFBRt_GfB-1" target="fwiV1ixGbwqKFBRt_GfB-2">
          <mxGeometry relative="1" as="geometry" />
        </mxCell>
        <mxCell id="fwiV1ixGbwqKFBRt_GfB-12" style="rounded=0;orthogonalLoop=1;jettySize=auto;html=1;exitX=0.5;exitY=0;exitDx=0;exitDy=0;entryX=0.5;entryY=1;entryDx=0;entryDy=0;" edge="1" parent="1" source="fwiV1ixGbwqKFBRt_GfB-1" target="fwiV1ixGbwqKFBRt_GfB-10">
          <mxGeometry relative="1" as="geometry" />
        </mxCell>
        <mxCell id="fwiV1ixGbwqKFBRt_GfB-13" style="rounded=0;orthogonalLoop=1;jettySize=auto;html=1;exitX=0;exitY=0.5;exitDx=0;exitDy=0;entryX=1;entryY=0.5;entryDx=0;entryDy=0;" edge="1" parent="1" source="fwiV1ixGbwqKFBRt_GfB-1" target="fwiV1ixGbwqKFBRt_GfB-3">
          <mxGeometry relative="1" as="geometry" />
        </mxCell>
        <mxCell id="fwiV1ixGbwqKFBRt_GfB-14" style="rounded=0;orthogonalLoop=1;jettySize=auto;html=1;exitX=0;exitY=0.5;exitDx=0;exitDy=0;" edge="1" parent="1" source="fwiV1ixGbwqKFBRt_GfB-1" target="fwiV1ixGbwqKFBRt_GfB-4">
          <mxGeometry relative="1" as="geometry" />
        </mxCell>
        <mxCell id="fwiV1ixGbwqKFBRt_GfB-15" style="rounded=0;orthogonalLoop=1;jettySize=auto;html=1;exitX=0.5;exitY=1;exitDx=0;exitDy=0;entryX=0.5;entryY=0;entryDx=0;entryDy=0;" edge="1" parent="1" source="fwiV1ixGbwqKFBRt_GfB-1" target="fwiV1ixGbwqKFBRt_GfB-5">
          <mxGeometry relative="1" as="geometry" />
        </mxCell>
        <mxCell id="fwiV1ixGbwqKFBRt_GfB-16" style="rounded=0;orthogonalLoop=1;jettySize=auto;html=1;exitX=0.5;exitY=1;exitDx=0;exitDy=0;entryX=0.5;entryY=0;entryDx=0;entryDy=0;" edge="1" parent="1" source="fwiV1ixGbwqKFBRt_GfB-1" target="fwiV1ixGbwqKFBRt_GfB-7">
          <mxGeometry relative="1" as="geometry" />
        </mxCell>
        <mxCell id="fwiV1ixGbwqKFBRt_GfB-17" style="rounded=0;orthogonalLoop=1;jettySize=auto;html=1;exitX=1;exitY=0.5;exitDx=0;exitDy=0;" edge="1" parent="1" source="fwiV1ixGbwqKFBRt_GfB-1" target="fwiV1ixGbwqKFBRt_GfB-9">
          <mxGeometry relative="1" as="geometry" />
        </mxCell>
        <mxCell id="fwiV1ixGbwqKFBRt_GfB-18" style="rounded=0;orthogonalLoop=1;jettySize=auto;html=1;exitX=1;exitY=0.5;exitDx=0;exitDy=0;" edge="1" parent="1" source="fwiV1ixGbwqKFBRt_GfB-1" target="fwiV1ixGbwqKFBRt_GfB-8">
          <mxGeometry relative="1" as="geometry" />
        </mxCell>
        <mxCell id="fwiV1ixGbwqKFBRt_GfB-1" value="&lt;b&gt;计算武器作战范围并显示盲区&lt;/b&gt;" style="shape=process;whiteSpace=wrap;html=1;backgroundOutline=1;" vertex="1" parent="1">
          <mxGeometry x="320" y="320" width="210" height="60" as="geometry" />
        </mxCell>
        <mxCell id="fwiV1ixGbwqKFBRt_GfB-2" value="用户划定分析范围" style="rounded=1;whiteSpace=wrap;html=1;" vertex="1" parent="1">
          <mxGeometry x="290" y="220" width="120" height="60" as="geometry" />
        </mxCell>
        <mxCell id="fwiV1ixGbwqKFBRt_GfB-3" value="系统展示范围内目标" style="rounded=1;whiteSpace=wrap;html=1;" vertex="1" parent="1">
          <mxGeometry x="130" y="280" width="120" height="60" as="geometry" />
        </mxCell>
        <mxCell id="fwiV1ixGbwqKFBRt_GfB-4" value="选择武器类型和位置" style="rounded=1;whiteSpace=wrap;html=1;" vertex="1" parent="1">
          <mxGeometry x="130" y="370" width="120" height="60" as="geometry" />
        </mxCell>
        <mxCell id="fwiV1ixGbwqKFBRt_GfB-5" value="计算武器作战范围" style="rounded=1;whiteSpace=wrap;html=1;" vertex="1" parent="1">
          <mxGeometry x="290" y="420" width="120" height="60" as="geometry" />
        </mxCell>
        <mxCell id="fwiV1ixGbwqKFBRt_GfB-7" value="自动化地形分析" style="rounded=1;whiteSpace=wrap;html=1;" vertex="1" parent="1">
          <mxGeometry x="460" y="420" width="120" height="60" as="geometry" />
        </mxCell>
        <mxCell id="fwiV1ixGbwqKFBRt_GfB-8" value="盲区显示和参数调整" style="rounded=1;whiteSpace=wrap;html=1;" vertex="1" parent="1">
          <mxGeometry x="600" y="370" width="120" height="60" as="geometry" />
        </mxCell>
        <mxCell id="fwiV1ixGbwqKFBRt_GfB-9" value="系统更新分析结果" style="rounded=1;whiteSpace=wrap;html=1;" vertex="1" parent="1">
          <mxGeometry x="600" y="280" width="120" height="60" as="geometry" />
        </mxCell>
        <mxCell id="fwiV1ixGbwqKFBRt_GfB-10" value="保存和导出分析结果" style="rounded=1;whiteSpace=wrap;html=1;" vertex="1" parent="1">
          <mxGeometry x="460" y="220" width="120" height="60" as="geometry" />
        </mxCell>
      </root>
    </mxGraphModel>
  </diagram>
</mxfile>
